<svg width="212" height="40" viewBox="0 0 212 40" fill="none" xmlns="http://www.w3.org/2000/svg">
<g clip-path="url(#clip0_999_18)">
<path d="M25.2613 0C25.2354 1.70063 23.7366 1.44111 22.6095 2.0716C21.0178 2.96008 20.0126 5.08358 19.3317 6.71705C16.4499 13.628 13.3534 24.6393 11.4144 32.0311C11.0504 33.4204 9.65063 36.814 11.7267 37.2079C12.9848 37.446 16.9983 37.3407 18.4239 37.2277C22.2729 36.9224 25.0679 34.8233 27.5475 32.0342C28.1736 31.3304 30.3714 27.459 31.3463 28.3719C31.7682 28.7673 27.6298 37.8399 27.6953 39.3512H0C0.143175 36.8216 1.49268 37.8979 2.96556 37.2903C3.72408 36.9773 4.31049 36.0232 4.62274 35.2904C7.43141 25.421 11.6322 15.3866 14.15 5.48966C14.9892 2.1922 14.8354 1.88841 11.2606 1.52507C11.4129 1.25945 11.4875 0.0015266 11.5652 0.0015266H25.2613V0Z" fill="black"/>
<path d="M68.5984 22.5729L78.3541 12.0714C81.3532 10.0853 84.9828 11.7066 81.536 14.9552C79.9808 16.4207 77.9916 16.9688 76.042 17.6847L69.2777 25.2032C69.9418 27.1252 71.139 35.7154 72.3758 36.6298C73.5684 37.5122 74.8372 36.0833 75.5942 35.233C76.4091 34.3186 76.0968 33.1568 78.0266 33.5568C77.1706 36.7245 72.9013 40.7471 69.497 39.8159C65.7821 38.8007 66.4355 32.4164 65.1744 29.8136C64.9748 29.4014 64.8454 29.1861 64.3382 29.2854C64.3153 29.6502 64.1402 29.9479 63.8949 30.2059C61.6498 32.5615 55.2039 39.6327 52.2353 39.9014C50.6284 40.0464 50.3953 38.6556 50.6466 37.3748C51.0762 35.1842 56.1955 34.2941 57.7948 33.2545C58.3781 32.8759 64.1782 27.0855 64.2849 26.6337C63.5903 24.5819 62.8196 16.9291 61.6148 15.694C60.6933 14.7506 59.6682 15.2116 59.1016 16.2604C58.3339 17.6832 59.1366 18.332 56.727 17.9962C57.8161 14.8346 60.3658 10.1494 64.4265 11.3509C67.1072 12.1447 67.6449 20.2403 68.5999 22.5729H68.5984Z" fill="black"/>
<path d="M37.8094 28.44C37.6297 28.6201 37.156 31.6703 37.1621 32.1481C37.2732 39.4468 43.8304 37.479 47.6367 34.1723C48.4516 33.464 50.7622 30.2978 51.0135 30.2383C52.0294 30.0002 52.2 31.023 51.9655 31.797C51.4034 33.6533 46.7381 37.5736 44.9453 38.4911C40.3957 40.8176 33.7715 41.0329 32.6993 34.7906C31.007 24.9456 41.5472 9.37882 52.427 11.3573C53.9319 11.6306 55.1321 12.8564 55.6134 14.2655C57.9118 21.0008 48.1835 25.915 42.9759 27.3668C42.0803 27.6171 37.9937 28.2522 37.8079 28.44H37.8094ZM38.3486 26.231C43.5958 25.918 49.9991 22.7915 51.6532 17.4561C52.8443 13.6151 49.9747 12.1008 46.7685 14.0823C42.8342 16.5126 40.3881 22.2465 38.3486 26.231Z" fill="black"/>
<path d="M83.7242 11.3587H89.8944V16.8254C91.6019 13.1265 94.6878 10.9724 97.827 10.8075C102.785 10.5862 105.65 13.2929 106.917 17.5429C108.736 14.0088 112.26 10.9724 115.235 10.8075C122.176 10.5312 125.205 15.8865 125.205 23.3409V39.3535H119.09V24.3348C119.09 19.2558 116.886 16.7705 113.692 16.6041C111.048 16.4377 108.513 18.1505 107.522 20.303C107.743 21.5182 107.797 22.8433 107.797 24.2783V39.3519H101.627V24.3332C101.627 19.4191 99.4232 16.8239 95.8423 16.8239C92.2614 16.7689 89.9477 19.8053 89.9477 24.1668V39.3504H83.7775L83.7227 11.3571L83.7242 11.3587Z" fill="black"/>
<path d="M127.299 34.0505C126.473 29.3577 130.274 25.1611 137.545 23.891C141.842 23.1735 144.21 23.0071 146.414 21.627C146.248 19.1433 143.274 16.9343 140.08 16.9343C136.884 16.8793 134.185 18.7005 132.863 21.4072L127.408 18.5357C129.337 14.5604 133.798 10.75 139.968 10.75C145.366 10.75 152.859 14.0627 152.859 23.0071V39.3509H146.743V34.3268C144.815 37.1419 141.345 39.2959 137.598 39.8485C132.255 40.621 128.013 38.4135 127.297 34.0505H127.299ZM146.69 28.4189V26.5412C145.478 27.4251 142.558 28.1426 139.804 28.5288C136.663 29.0265 133.193 29.3577 133.414 32.2827C133.635 35.2092 137.435 35.2092 140.576 33.7177C143.275 33.0002 145.864 30.7912 146.691 28.4174L146.69 28.4189Z" fill="black"/>
<path d="M154.789 0.701172H160.959L160.905 21.7927L172.254 11.3568H180.902L169.443 22.4552L182.5 39.3501H174.732L164.981 26.7068L160.905 30.6271V39.3501H154.734L154.789 0.701172Z" fill="black"/>
<path d="M178.864 25.4937C178.809 16.8806 185.089 10.9727 193.021 10.9727C200.954 10.9727 206.903 17.0455 206.793 27.4813H185.31C186.025 31.4566 189.221 34.0518 193.023 34.0518C196.162 34.0518 198.862 32.3405 200.185 29.5804L205.639 32.3954C203.325 37.0882 198.588 39.9048 193.024 39.9048C185.037 39.9048 178.867 34.0518 178.867 25.4937H178.864ZM193.021 16.9356C189.55 16.9356 186.741 18.8682 185.75 22.3458H199.962C199.08 19.0881 196.491 16.9356 193.021 16.9356Z" fill="black"/>
<path d="M212.001 36.717C212.001 38.126 210.861 39.2679 209.455 39.2679C208.049 39.2679 206.91 38.126 206.91 36.717C206.91 35.3079 208.049 34.166 209.455 34.166C210.861 34.166 212.001 35.3079 212.001 36.717ZM211.699 36.717C211.699 35.4758 210.695 34.4683 209.455 34.4683C208.216 34.4683 207.212 35.4743 207.212 36.717C207.212 37.9596 208.216 38.9657 209.455 38.9657C210.695 38.9657 211.699 37.9596 211.699 36.717Z" fill="black"/>
<path d="M208.603 35.3132C209.062 35.3483 209.627 35.2323 210.059 35.4018C210.735 35.6674 210.673 36.6353 210.018 36.8917L210.825 38.1054H210.155L209.515 37.0368H209.196V38.1054H208.602V35.3132H208.603ZM209.494 35.8017C209.4 35.7926 209.293 35.8078 209.197 35.8017V36.5498H209.479C209.512 36.5498 209.656 36.5177 209.692 36.5055C209.893 36.4368 209.966 36.2261 209.905 36.0307C209.855 35.872 209.642 35.8155 209.494 35.8017Z" fill="black"/>
</g>
<defs>
<clipPath id="clip0_999_18">
<rect width="212" height="40" fill="white"/>
</clipPath>
</defs>
</svg>
