<svg width="385" height="432" viewBox="0 0 385 432" fill="none" xmlns="http://www.w3.org/2000/svg">
<path d="M250.263 17.9365C248.717 12.7232 248.64 7.43006 255.66 10.2946C263.458 13.4751 279.683 42.4428 280.916 51.0097C281.299 53.6579 280.298 58.5518 281.428 60.4415C283.34 63.6354 295.026 61.1835 292.558 68.7789C283.168 89.6155 273.245 108.519 258.38 125.939C245.285 141.29 229.48 153.955 215.034 167.992C218.569 168.108 221.978 166.471 225.439 166.208C248.444 164.448 271.07 165.623 294.148 165.313C317.219 165.004 341.498 162.602 364.612 164.342C372.34 164.924 366.784 167.589 361.895 168.035C353.891 168.763 343.922 167.975 335.622 168.038C296.17 168.351 255.391 165.483 216.281 171.508C213.704 171.904 210.951 171.185 208.473 171.831C205.996 172.476 200.083 177.73 197.869 179.742C202.025 178.967 205.916 176.712 210.163 176.236C215.337 175.657 219.151 177.167 223.614 177.117C231.811 177.021 239.313 170.68 237.63 185.172C245.378 184.157 254.626 183.645 262.457 184.287C272.181 185.085 281.967 189.091 291.434 190.552C295.392 191.164 301.507 189.244 304.466 192.874C306.854 195.798 303.835 201.707 303.549 205.486C302.588 218.242 305.514 229.876 303.349 243.257C302.731 247.086 296.233 265.677 298.697 267.54L348.754 266.532C348.996 263.864 346.206 264.373 344.76 261.944C342.761 258.588 342.585 248.83 344.357 245.406C346.831 240.622 359.608 235.888 363.635 241.257C369.318 248.843 351.783 245.449 354.383 253.218C356.256 258.817 362.318 259.449 366.548 261.848C378.512 268.638 387.547 287 378.442 299.389C376.477 302.064 374.316 301.898 373.158 303.142C372.001 304.386 370.817 309.51 368.506 312.045C365.949 314.853 362.025 316.749 358.254 317.155C349.359 318.116 332.256 317.049 323.062 316.2C312.873 315.259 314.376 316.011 304.869 317.082C300.712 317.551 289.938 318.659 289.256 313.771C288.638 309.33 295.411 309.38 295.491 308.452C296.276 299.546 292.542 302.57 288.644 299.103C284.747 295.636 286.905 274.537 290.44 273.978C294.131 273.396 295.664 280.978 301.307 281.024C309.538 281.091 308.224 272.794 312.208 271.919C315.364 271.223 315.962 277.288 319.371 277.361C320.94 277.395 325.14 274.517 327.737 273.975C341.96 271.004 355.238 275.681 365.517 285.476L372.241 296.358C378.356 284.734 369.999 278.476 360.981 272.84C352.352 267.447 346.22 269.457 336.526 269.284C320.119 268.991 309.012 270.621 293.19 271.975C287.67 272.448 280.55 270.608 274.176 271.01C271.306 271.193 268.573 271.912 265.713 272.038C263.521 276.846 266.451 294.296 262.916 296.801C261.273 297.962 259.122 297.43 257.549 297.616C253.971 298.042 259.704 300.051 260.671 300.88C270.106 308.964 275.626 321.204 277.385 333.434C279.703 333.587 281.824 332.569 284.122 332.486C310.542 331.531 337.338 331.79 363.664 329.804C367.206 329.538 380.724 326.66 382.489 327.036C382.988 327.142 383.986 329.222 383.986 329.362C383.979 331.068 368.606 332.356 366.375 332.516C340.291 334.389 313.884 334.349 287.74 335.194C284.411 335.3 281.844 336.957 278.296 335.237C283.118 360.495 280.378 386.369 280.245 411.93C282.157 412.259 284.441 414.348 286.081 414.525C290.324 414.98 300.682 413.986 305.84 413.873C326.563 413.423 347.55 412.126 368.207 411.181C370.229 411.088 384.308 411.49 384.917 412.069C385.17 412.312 384.747 415.596 384.907 416.587C374.302 414.119 363.472 416.81 352.837 416.99C338.405 417.233 323.946 416.208 309.474 416.601L301.793 418.387C307.276 417.795 320.375 427.739 310.169 429.948C301.547 431.815 283.251 429.865 273.288 430.111C265.626 430.301 256.641 431.841 248.973 432.001C245.671 432.068 230.577 430.6 229.649 427.743C229.15 426.202 229.732 418.8 228.043 418.344L18.0633 419.761L17.1688 417.499C27.2014 415.416 37.1343 418.114 47.4728 417.529C105.963 414.229 164.795 412.355 223.68 413.823C225.217 413.859 226.331 414.112 227.684 414.777L221.362 310.817C220.894 310.351 210.053 313.213 208.497 313.762C185.006 322.049 160.409 327.425 135.698 332.229C113.102 336.624 85.7843 342.826 63.4412 335.48C36.3262 326.567 34.8265 300.444 52.7169 281.301L71.3688 267.437L10.3685 267.427L9.035 265.621L76.7925 264.706C77.2015 263.139 76.1407 262.899 75.4457 261.994C69.5798 254.336 62.8027 247.309 57.9676 238.802C53.1126 230.262 50.2628 219.662 45.6605 211.342C42.7175 206.022 34.1647 201.963 42.1489 196.151C45.0553 194.035 56.428 189.447 60.2954 188.09C68.3494 185.265 77.2614 182.95 85.8375 183.362V171.601C80.876 171.758 75.8581 171.415 70.8867 171.568C50.9112 172.184 22.2965 174.702 3.11586 172.553C1.54629 172.376 0.00665072 172.343 0 170.264C2.3078 167.323 5.7961 169.685 8.5894 169.791C25.449 170.43 43.5289 168.78 60.9438 168.94C69.3204 169.016 77.4975 168.008 85.8408 167.998C85.1691 134.902 93.9979 102.301 108.686 72.881C119.663 50.8965 140.902 21.177 163.272 9.97185C171.293 5.9529 171.043 10.5308 175.526 9.65911C178.459 9.08688 180.444 5.06128 184.108 3.69724C186.928 2.64925 193.489 1.32513 196.632 0.859354C216.085 -2.02178 237.524 2.01713 250.276 17.9266L250.263 17.9365ZM211.702 21.2968C210.269 19.5667 210.319 17.6238 211.513 15.7873C211.706 15.4879 216.248 11.0464 216.554 10.8734C219.543 9.19334 224.485 10.4975 226.756 6.63492C226.074 5.66346 225.103 5.27753 224.063 4.8284C216.085 1.39167 193.203 2.99525 185.212 6.63825C183.826 7.27037 179.363 10.0118 178.891 11.1662C178.223 12.8097 179.952 12.5502 180.667 12.9428C190.982 18.6086 202.102 23.5025 214.123 23.3495C214.09 22.0453 212.258 21.9721 211.699 21.2934L211.702 21.2968ZM244.534 15.5445C241.84 13.4685 229.317 4.03991 226.789 9.36302L243.875 19.3671C245.411 19.9261 246.276 22.1318 244.381 22.4612C243.526 22.6109 235.548 16.4793 233.314 15.4713C230.138 14.0407 221.678 11.1729 218.629 12.0479C217.465 12.3806 216.461 12.2907 216.853 13.8544C217.924 15.8772 224.638 15.6742 226.962 16.3995C229.978 17.341 239.003 21.5463 241.873 23.1765C242.761 23.6788 246.003 25.9046 244.849 26.9692C244.128 27.6346 229.716 20.0857 226.823 19.2507C224.345 18.5354 217.049 17.0549 214.595 17.0017C212.407 16.9551 213.511 18.7217 214.402 19.4769C216.577 21.3234 226.547 23.7387 230.421 25.5918C237.756 29.1051 248.035 36.6772 251.903 43.8734C253.259 46.3952 254.559 52.7729 254.852 53.1622C254.925 53.2587 256.182 52.57 257.283 52.9127C259.707 53.6646 276.647 60.2819 277.375 59.5133C277.202 56.7054 277.664 53.7278 277.368 50.9398C276.507 42.8187 267.841 26.8893 262.48 20.6347C261.486 19.4736 254.975 12.7864 254.327 12.517C252.099 11.5954 253.15 15.2484 253.386 16.1733C254.051 18.7683 260.252 27.7144 259.301 28.7757C258.417 29.7638 248.634 17.9033 246.196 17.9033C245.438 17.351 245.155 16.0202 244.534 15.5411V15.5445ZM205.091 26.9892C197.377 24.4041 190.21 20.4118 182.755 17.2346C180.74 16.3762 178.462 16.2697 176.447 15.4081C174.432 14.5464 170.358 11.083 169.244 10.8868C167.485 10.5774 158.995 17.534 157.21 19.2973C170.804 23.5557 183.294 27.8142 194.693 36.6207C196.286 35.24 206.398 28.7358 205.091 26.9892ZM193.34 37.8383L180.63 29.3014L155.687 20.821C154.327 20.7412 144.297 28.7524 143.652 30.1464L178.442 48.3781L193.34 37.8383ZM209.295 95.3611C219.547 86.232 237.976 70.5455 246.216 60.4316C247.859 58.4154 251.683 53.2088 251.819 50.7901C252.085 46.0991 240.204 33.1507 236.107 30.7486C231.528 28.0671 217.987 25.1859 212.723 25.136C206.575 25.0762 208.31 27.751 205.939 30.0799C198.151 37.7385 186.636 44.7484 178.415 52.2606C168.612 61.2167 151.643 78.9493 144.158 89.376C142.212 92.0841 141.251 95.3378 139.14 97.9395C149.358 97.9628 156.062 98.9276 160.718 108.882C161.815 111.227 161.892 114.571 163.112 116.431C164.126 117.978 166.497 118.314 166.999 119.774C167.788 122.07 165.739 127.463 168.513 127.343C174.711 127.074 188.904 110.046 194.703 105.618C199.455 101.992 204.29 99.8159 209.295 95.3578V95.3611ZM131.002 45.9461C141.803 51.186 153.695 54.5595 163.205 62.1616L177.065 50.0282L142.269 32.4154C140.989 32.4287 133.141 41.8573 131.9 43.6971C131.395 44.4456 130.617 44.5587 131.002 45.9494V45.9461ZM120.158 62.2181C130.906 65.6515 141.427 70.0863 151.201 75.6956L162.607 63.5855C162.607 62.7538 150.276 56.4359 148.191 55.4245C146.106 54.4131 131.465 47.7659 130.504 47.8158C127.351 47.9855 121.701 59.2671 120.158 62.2181ZM290.028 66.7627C278.495 63.7086 266.754 61.3531 255.973 56.0566C254.15 55.8803 249.289 62.8636 247.576 64.4938L283.261 82.1099L290.028 66.7627ZM140.919 90.2543L149.551 77.5986C148.407 76.2279 147.057 75.2597 145.508 74.3848C142.239 72.5383 125.489 65.4819 122.33 65.0294C121.156 64.8631 118.419 64.5769 117.588 65.0959C116.836 65.565 111.143 79.0458 110.222 81.2116C121.133 80.9056 131.538 85.0543 140.919 90.2576V90.2543ZM252.079 89.3527C255.381 91.0793 271.02 101.386 272.284 101.177C273.547 100.967 280.876 86.3451 282.775 84.3722L245.707 66.2271L232.22 78.0544C237.56 80.9987 244.79 83.1313 249.698 86.7876C250.918 87.6958 251.573 88.9734 252.082 89.3527C248.251 87.3498 233.277 79.9607 229.968 80.2967C229.111 80.3832 217.961 89.722 216.517 91.0827C215.756 91.8013 215.693 91.7048 215.942 92.9524C232.406 98.2689 245.824 108.06 260.605 116.527L269.933 104.254C265.47 98.708 259.022 95.3545 253.419 91.1359C252.691 90.587 252.378 89.5756 252.079 89.3493V89.3527ZM103.894 97.4804C113.681 99.7028 123.84 101.955 132.339 107.438L139.07 91.7015C130.79 85.53 119.912 83.5405 109.923 82.06C109.112 82.243 103.339 96.835 103.894 97.4804ZM249.904 127.875C250.882 126.914 256.861 120.549 257.103 120.077C257.758 118.806 257.336 118.736 256.664 117.785C255.035 115.482 241.172 106.713 237.899 104.893C230.8 100.944 222.915 98.4485 215.935 94.2233C215.274 93.8141 214.815 94.0303 214.173 94.2899C212.234 95.075 204.071 102.737 201.912 104.743C201.081 105.515 198.012 105.771 200.23 107.488C215.413 114.531 230.69 121.807 243.629 132.626C245.119 132.879 248.723 129.036 249.907 127.872L249.904 127.875ZM131.904 129.126V112.402C131.904 111.923 133.443 110.505 132.735 109.341C128.745 106.363 107.053 98.4186 103.582 99.3934C100.994 100.119 98.4372 113.12 97.556 116.008C109.358 118.45 120.804 124.319 131.904 129.126ZM155.401 118.284C163.288 122.529 160.592 113.33 158.27 108.626C152.624 97.1909 140.137 97.2974 136.822 110.089C135.212 116.304 133.51 136.166 142.249 137.307C156.185 139.13 163.461 135.008 160.808 120.087C158.546 121.291 155.417 121.854 155.401 118.284ZM243.04 135.434C244.587 133.338 221.735 119.907 219.567 118.713C216.534 117.039 201.001 108.742 198.996 108.463C194.696 107.867 186.383 118.989 181.598 120.1C180.783 121.331 187.218 123.317 188.212 123.863C201.62 131.255 212.653 142.038 223.6 152.412C226.267 152.624 239.545 136.825 243.04 135.431V135.434ZM134.853 136.119C133.836 135.085 133.925 133.125 131.867 131.419C128.848 128.913 105.627 119.388 101.42 118.497C100.303 118.26 98.1812 117.944 97.2102 118.217C96.1494 118.517 92.1656 137.337 92.1989 139.613C92.2454 142.84 97.8919 141.569 100.486 142.028C124.88 146.366 147.975 157.868 171.658 164.834C176.397 167.286 188.511 180.215 191.228 180.464C194.637 180.78 203.964 169.948 206.834 167.419C207.496 163.64 181.664 144.457 176.799 142.514C175.093 141.835 161.074 137.48 160.206 137.464C157.492 137.414 150.542 141.582 145.169 140.538C143.745 140.262 135.625 136.898 134.853 136.113V136.119ZM162.633 130.933C167.468 131.063 167.139 120.563 164.868 120.09C160.365 119.152 164.256 125.393 164.436 125.979C164.522 126.265 161.054 127.07 162.633 130.933ZM217.176 158.4C218.496 157.119 221.379 156.188 221.382 153.985L220.521 152.122C213.392 146.1 207.15 138.801 199.595 133.268C196.326 130.876 184.305 123.181 180.913 122.938C178.136 122.742 168.26 132.19 165.766 134.572C165.177 135.135 161.566 135.976 164.093 137.257C166.893 138.678 172.347 139.25 175.885 140.711C188.827 146.057 199.448 156.42 209.155 166.168C211.815 163.567 214.506 160.982 217.172 158.397L217.176 158.4ZM91.2445 144.946C90.0008 149.437 92.1623 159.222 91.2445 164.382C126.204 165.746 164.136 176.282 191.996 197.824C191.95 194.853 190.267 184.513 188.884 182.181C188.006 180.697 173.88 168.83 171.675 167.532C164.818 163.497 158.467 163.171 151.533 160.563C145.205 158.184 138.963 154.857 132.389 152.598C123.78 149.64 102.454 142.72 94.1908 142.92C93.1067 142.946 91.454 144.197 91.2445 144.949V144.946ZM197.855 215.005C196.369 211.352 195.727 204.691 193.28 201.963C177.644 184.556 129.107 169.861 106.142 167.103C103.758 166.817 91.7666 165.563 90.739 167.033C90.6991 170.517 90.9352 190.299 92.0925 191.104C93.5955 192.152 102.251 191.254 105.158 191.593C125.173 193.938 151.766 200.539 171.672 205.5C180.713 207.752 189.559 210.736 197.859 215.001L197.855 215.005ZM234.913 177.939C227.072 179.47 218.918 178.139 211.077 178.957C204.686 179.626 198.923 183.109 192.442 183.375L203.409 223.016L246.658 221.329C243.024 206.767 233.414 193.443 234.913 177.939ZM108.41 256.578C105.271 251.418 104.297 245.044 102.278 239.674C99.1788 231.433 93.948 222.557 91.2113 214.589C88.1253 205.603 87.3206 195.782 85.8474 186.489C79.087 186.862 72.2467 187.983 65.7523 189.949C62.3804 190.971 45.3014 198.007 43.642 199.904C40.7589 203.194 45.4277 205.13 47.1503 208.048C52.8532 217.713 56.4413 229.956 62.1576 240.043C64.2925 243.809 78.0295 264.633 81.3649 264.343L108.413 256.581L108.41 256.578ZM286.593 193.113C286.157 192.837 286.147 191.13 284.953 190.731C282.752 189.996 267.216 187.268 264.266 186.992C261.024 186.686 238.88 186.363 238.451 188.459L248.501 221.293C251.766 222.048 265.457 219.795 266.411 222.813C267.678 237.99 268.054 253.254 265.633 268.339C266.202 268.894 279.094 266.625 281.442 266.719C283.749 266.808 294.667 270.405 295.215 267.025C295.322 266.373 294.354 264.679 294.703 262.713C295.88 256.096 299.133 248.537 299.957 241.667C301.257 230.808 298.976 218.332 299.977 207.336C300.267 204.179 302.914 197.378 302.707 195.575C301.999 189.344 288.495 194.311 286.589 193.11L286.593 193.113ZM198.531 218.851C197.619 217.926 182.406 211.488 180.042 210.69C175.133 209.029 169.394 207.895 164.276 206.574C140.869 200.536 116.231 195.113 92.1457 193.306C91.1414 194.304 96.4221 217.19 97.975 217.486C111.336 215.284 124.731 220.474 137.889 222.128C144.221 222.923 151.151 222.114 157.622 224.08L199.668 223.136C199.718 221.798 199.482 219.815 198.531 218.851ZM152.624 225.924C147.549 223.385 142.039 224.696 136.985 223.934C123.913 221.968 110.971 217.749 97.5693 218.628L107.21 240.349L150.296 242.914C153.02 242.003 151.214 229.28 152.624 225.92V225.924ZM260.133 293.574C261.859 281.48 262.098 269.2 262.929 257.05C263.541 248.121 266.378 236.174 264.702 227.234C264.489 226.093 264.023 225.022 262.926 224.493C262.374 224.227 252.155 223.076 250.722 223.066C237.188 222.989 221.199 225.581 207.389 225.89C193.832 226.193 180.075 224.809 166.733 224.916C165.207 224.929 156.568 226.11 155.84 226.749C151.859 230.242 155.451 239.737 155.474 244.388C155.52 253.441 154.463 263.322 154.456 272.371C154.456 275.555 153.874 293.144 155.337 294.163C157.778 295.859 185.754 294.342 191.072 294.482C213.957 296.418 237.331 295.859 260.129 293.574H260.133ZM361.403 243.922C363.006 241.77 358.284 241.005 356.512 241.251C351.933 241.89 345.415 245.469 345.079 250.729C344.218 264.237 353.838 265.152 362.607 271.203C370.92 276.942 379.344 282.804 375.37 294.512C375.21 294.981 369.833 301.575 373.591 299.968C381.611 296.538 379.789 283.436 376.653 277.035C370.302 264.06 356.166 263.668 352.368 255.946C346.858 244.741 360.306 245.386 361.4 243.916L361.403 243.922ZM150.885 245.739L108.417 243.034C107.841 243.596 113.405 257.087 114.229 257.24C126.304 254.918 138.641 255.843 150.885 255.69C150.615 254.07 151.247 246.078 150.885 245.739ZM150.878 262.014C151.161 258.937 149.721 257.822 146.854 257.453C141.437 256.751 126.141 256.864 120.611 257.496C118.818 257.703 114.668 258.228 114.692 260.667L150.416 291.857C150.822 288.833 151.67 281.7 150.433 279.185C149.684 277.664 143.33 274.178 141.846 272.401C140.234 269.227 151.33 273.203 149.967 269.254C142.854 269.986 136.134 269.44 130.105 265.168C127.321 263.199 136.157 262.018 136.868 262.018H150.875L150.878 262.014ZM111.822 260.431C109.923 258.498 106.777 260.008 104.612 260.474C87.2973 264.2 65.9552 273.326 53.7145 286.384C38.8269 302.27 42.4382 325.027 63.8868 332.323C93.2929 342.323 157.649 325.412 188.844 317.617C190.879 317.108 202.687 314.157 203.163 313.416C204.37 311.536 201.071 302.22 200.639 299.462L152.418 297.985L135.927 284.584C127.398 286.447 118.586 286.813 110.036 288.487C98.9128 290.666 88.7472 295.643 77.7003 296.352C77.0951 294.143 79.8751 293.787 81.3349 293.231C97.6325 287.056 115.586 284.045 132.811 281.883L113.192 263.551C112.394 262.746 112.52 261.126 111.825 260.424L111.822 260.431ZM150.875 264.736C150.406 264.213 138.465 264.519 136.858 264.722C135.605 264.882 134.245 265.201 135.522 266.519C136.848 267.89 146.994 266.832 149.541 266.536C150.832 266.386 152.072 266.066 150.875 264.736ZM321.778 312.511C324.412 316.619 355.487 312.753 361.46 313.143C378.502 304.835 368.912 289.106 356.818 281.523C349.392 276.869 340.902 274.57 332.04 275.575C330.009 275.804 320.295 278.566 320.754 280.535C321.868 280.881 325.915 286.57 323.009 286.407C322.211 286.364 313.249 276.443 312.161 274.677C309.132 285.792 297.643 284.235 291.384 276.5C289.476 276.453 287.896 293.747 288.671 295.443C290.636 299.748 300.965 300.068 304.48 303.152C302.754 304.546 300.503 301.938 298.574 303.501C296.968 304.805 296.732 307.73 298.584 307.999C299.156 308.082 307.389 305.97 309.907 305.843C310.731 305.8 313.581 305.058 313.505 306.765C313.388 309.317 293.363 309.387 291.837 314.44C300.742 315.944 309.365 312.551 318.047 312.208L318.812 311.316C317.994 308.402 318.43 302.706 319.025 299.615C320.282 293.081 330.551 282.734 337.913 284.621C338.408 287.366 337.095 286.008 335.785 286.507C329.912 288.743 322.613 295.853 321.732 302.323C321.522 303.854 321.359 311.859 321.778 312.511ZM237.62 299.086L203.299 300.417L207.399 311.765C217.528 308.362 230.208 307.404 237.62 299.086ZM275.449 410.143C276.869 399.553 275.785 388.777 276.484 378.184C276.873 372.302 279.244 364.767 279.26 359.191C279.29 348.538 271.838 315.122 264.762 307.63C259.664 302.23 250.805 297.077 243.177 299.669C240.018 300.74 240.427 302.66 238.501 304.024C235.252 306.319 225.143 308.831 224.535 311.616L231.425 416.015C232.21 418.414 242.585 417.609 245.189 417.382C249.126 417.04 274.206 412.056 275.449 410.143ZM309.002 425.627C302.215 419.425 290.666 420.59 282.536 417.313C280.61 416.537 278.372 414.155 277.697 414.026C276.909 413.873 265.024 417.599 262.185 418.118C257.127 419.046 250.024 420.513 245.229 421.042C241.507 421.451 236.935 420.516 233.56 421.119C229.523 421.837 231.871 427.802 236.223 428.391C244.168 429.463 252.774 427.669 260.622 427.407C276.74 426.864 292.881 426.864 309.002 425.63V425.627Z" fill="black"/>
<path d="M221.36 336.135V340.663C189.4 342.45 157.18 340.956 125.087 341.611C97.3338 342.177 72.9423 342.516 44.7465 341.525C35.9643 341.215 26.1245 342.35 17.5617 341.601C15.9556 341.462 14.6388 341.871 13.5547 340.204L221.36 336.132V336.135Z" fill="black"/>
<path d="M146.828 104.724C148.181 106.324 157.163 110 157.186 110.596C157.336 114.412 141.776 108.653 146.828 104.724Z" fill="black"/>
<path d="M149.971 113.753C148.484 115.037 138.708 109.967 139.137 107.894C139.343 106.902 140.62 106.33 141.85 106.966C142.951 107.535 146.556 109.97 147.896 110.868C149.073 111.657 150.353 111.903 149.974 113.753H149.971Z" fill="black"/>
<path d="M154.492 129.136C152.261 133.873 145.244 132.39 144.562 127.319C147.971 130.217 150.265 130.566 154.492 129.136Z" fill="black"/>
<path d="M152.886 123.527C153.192 124.039 155.327 124.369 155.38 125.061L149.979 127.313C149.67 125.896 152.666 126.046 152.67 125.064C152.67 124.881 151.313 124.056 151.133 123.131C150.854 121.714 152.287 119.182 151.788 117.379C153.903 117.981 151.928 121.927 152.882 123.524L152.886 123.527Z" fill="black"/>
</svg>
